<?xml version="1.0" standalone="no"?>
<!DOCTYPE svg PUBLIC "-//W3C//DTD SVG 20010904//EN"
 "http://www.w3.org/TR/2001/REC-SVG-20010904/DTD/svg10.dtd">
<svg version="1.0" xmlns="http://www.w3.org/2000/svg"
 width="803.000000pt" height="640.000000pt" viewBox="0 0 803.000000 640.000000"
 preserveAspectRatio="xMidYMid meet">

<g transform="translate(0.000000,640.000000) scale(0.100000,-0.100000)"
fill="#000000" stroke="none">
<path d="M1010 3210 l0 -3190 2835 0 2835 0 0 3190 0 3190 -2835 0 -2835 0 0
-3190z m1974 3133 c14 -3 24 -9 21 -13 -2 -4 6 -12 18 -17 20 -9 22 -17 21
-84 -1 -58 -4 -73 -15 -70 -8 2 -34 6 -59 9 l-45 6 35 6 c19 4 -53 5 -160 4
-166 -1 -207 -5 -278 -23 -46 -13 -95 -24 -111 -26 -15 -2 -53 -15 -84 -29
-30 -14 -59 -26 -62 -26 -14 0 -132 -58 -146 -72 -8 -7 -40 -30 -73 -50 -125
-78 -301 -280 -399 -458 -20 -36 -50 -103 -67 -150 -37 -104 -80 -323 -79
-399 2 -53 2 -51 10 25 19 182 77 384 146 511 104 192 240 344 410 460 117 80
325 173 386 173 12 0 50 9 84 19 98 30 288 37 413 16 146 -25 296 -74 400
-133 30 -17 77 -43 104 -58 62 -33 257 -221 302 -290 18 -29 40 -59 49 -68 9
-9 14 -16 11 -16 -3 0 6 -16 19 -36 14 -20 25 -42 25 -49 0 -6 11 -33 24 -61
13 -27 38 -101 57 -164 29 -103 33 -130 36 -267 2 -125 -1 -170 -18 -250 -12
-54 -23 -109 -26 -123 -5 -28 -7 -33 -62 -154 -35 -75 -100 -190 -132 -230
-71 -92 -172 -193 -253 -254 -55 -43 -107 -82 -116 -89 -18 -14 41 5 77 25 27
15 149 59 218 78 28 8 77 23 110 34 73 24 116 29 320 37 326 12 560 -39 875
-190 25 -12 105 -62 178 -111 177 -118 363 -301 473 -467 73 -109 179 -299
179 -322 0 -6 12 -39 26 -75 14 -35 27 -73 29 -83 2 -10 13 -51 24 -91 11 -40
22 -93 25 -118 3 -25 9 -90 15 -145 13 -125 14 -337 1 -391 -5 -23 -12 -63
-15 -90 -6 -62 -54 -230 -94 -331 -52 -130 -162 -327 -231 -415 -121 -154
-346 -363 -471 -439 -30 -18 -61 -38 -69 -44 -46 -37 -372 -163 -466 -179 -16
-3 -78 -15 -138 -26 -151 -28 -371 -28 -522 0 -60 12 -127 23 -148 27 -22 3
-65 14 -95 24 -31 11 -63 21 -71 23 -59 15 -261 109 -361 168 -88 52 -322 251
-394 335 -57 66 -145 186 -164 223 -7 14 -28 52 -46 85 -96 167 -137 267 -178
430 -56 222 -77 503 -48 660 6 33 13 79 16 101 3 23 14 70 24 105 11 35 22 75
24 89 14 78 132 329 215 457 138 214 409 465 620 572 23 12 42 23 42 26 0 6
-43 -11 -118 -47 -131 -62 -352 -108 -522 -108 -133 0 -284 27 -378 67 -18 8
-40 12 -48 9 -8 -3 -13 -2 -10 2 3 5 -24 20 -59 34 -36 14 -65 24 -65 22 0 -2
17 -13 38 -24 20 -11 30 -20 22 -19 -35 3 -61 -2 -56 -10 3 -5 -3 -11 -14 -14
-13 -3 -18 -10 -14 -21 4 -11 1 -16 -11 -16 -9 0 -13 -5 -10 -10 3 -6 -4 -14
-17 -19 -13 -6 -17 -10 -9 -10 8 -1 11 -4 8 -7 -6 -6 -103 50 -174 101 -80 56
-196 162 -239 218 -27 33 -60 73 -75 88 -15 16 -44 57 -64 91 -21 35 -41 65
-45 68 -20 13 -105 257 -134 385 -31 138 -29 389 3 530 45 195 97 330 167 437
24 37 44 70 44 73 0 3 39 52 87 110 92 110 236 236 343 300 36 21 67 42 70 45
7 10 70 41 70 35 0 -3 25 9 55 26 30 17 55 28 55 24 0 -3 12 0 28 9 37 19 80
34 119 41 18 3 45 10 60 16 15 6 51 15 78 19 54 9 407 11 449 3z m121 -27 c65
-18 37 -19 -35 -1 -30 7 -46 14 -35 14 11 0 43 -6 70 -13z m40 -177 c14 -6 9
-7 -15 -3 -19 4 -44 11 -55 15 -14 6 -9 7 15 3 19 -4 44 -11 55 -15z m154 -65
c14 -12 -19 -1 -35 12 -18 14 -18 14 6 3 14 -6 27 -13 29 -15z m-1154 -2374
c3 -5 -4 -6 -15 -3 -11 3 -22 9 -25 13 -3 5 4 6 15 3 11 -3 22 -9 25 -13z m80
-38 c-3 -3 -11 0 -18 7 -9 10 -8 11 6 5 10 -3 15 -9 12 -12z"/>
<path d="M3000 6176 c0 -2 9 -6 20 -9 11 -3 18 -1 14 4 -5 9 -34 13 -34 5z"/>
<path d="M2236 5918 c-3 -7 -6 -22 -9 -33 -3 -11 -23 -83 -46 -160 -84 -281
-121 -415 -114 -415 3 0 24 9 47 20 45 22 282 119 306 125 8 2 25 7 38 11 l22
6 -19 -45 c-11 -25 -22 -58 -24 -74 -3 -15 -16 -59 -29 -98 -14 -38 -38 -110
-53 -160 -15 -49 -38 -121 -51 -160 -12 -38 -46 -144 -74 -235 -29 -91 -64
-196 -77 -235 -13 -38 -24 -73 -24 -77 0 -4 -11 -38 -25 -75 -15 -38 -28 -81
-31 -96 -2 -16 -13 -49 -24 -74 -10 -24 -21 -59 -24 -76 -3 -16 -8 -33 -10
-37 -4 -7 267 -20 403 -20 51 0 62 3 62 16 0 9 11 67 24 128 39 173 75 357 81
406 5 43 17 104 70 355 13 61 35 173 49 250 37 194 67 315 77 309 5 -3 9 -40
9 -82 0 -42 11 -174 24 -292 39 -337 75 -668 81 -745 3 -38 14 -137 25 -219
11 -81 20 -150 20 -152 0 -2 104 -4 230 -4 212 0 230 1 230 18 0 9 -11 61 -25
116 -14 54 -27 113 -29 130 -3 18 -14 70 -26 116 -12 46 -23 99 -26 118 -2 19
-13 71 -25 115 -11 45 -22 97 -25 116 -2 20 -14 70 -25 111 -11 41 -22 89 -24
105 -2 17 -15 77 -29 135 -41 170 -74 313 -80 346 l-5 31 52 -22 c29 -12 110
-50 181 -84 70 -34 129 -61 131 -59 1 2 -6 41 -16 88 -10 47 -23 117 -28 155
-6 39 -19 111 -29 160 -11 50 -23 117 -27 149 -4 33 -9 65 -12 73 -4 9 -81
-26 -279 -128 l-274 -140 -43 24 c-101 58 -303 177 -312 184 -13 11 -172 93
-180 93 -3 0 -7 -6 -9 -12z"/>
<path d="M1512 4835 c0 -33 6 -78 14 -100 9 -26 11 -29 7 -10 -3 17 -9 62 -13
100 l-7 70 -1 -60z"/>
<path d="M1537 4663 c6 -38 34 -125 39 -121 2 2 -1 20 -5 39 -5 19 -12 51 -16
72 -3 20 -10 37 -14 37 -5 0 -6 -12 -4 -27z"/>
<path d="M1583 4515 c0 -8 4 -15 9 -15 4 0 8 4 8 9 0 6 -4 12 -8 15 -5 3 -9
-1 -9 -9z"/>
<path d="M1606 4455 c17 -43 53 -107 66 -120 9 -10 -14 46 -49 117 -23 47 -37
50 -17 3z"/>
<path d="M1686 4305 c4 -8 11 -15 16 -15 6 0 5 6 -2 15 -7 8 -14 15 -16 15 -2
0 -1 -7 2 -15z"/>
<path d="M1728 4241 c15 -21 29 -37 31 -35 6 5 -40 74 -50 74 -5 0 4 -18 19
-39z"/>
<path d="M1860 4086 c30 -31 56 -56 58 -56 8 0 -73 87 -93 99 -11 7 5 -12 35
-43z"/>
<path d="M1930 4026 c0 -2 8 -10 18 -17 15 -13 16 -12 3 4 -13 16 -21 21 -21
13z"/>
<path d="M2060 3927 c0 -3 12 -12 26 -22 15 -9 23 -12 20 -6 -7 11 -46 35 -46
28z"/>
<path d="M4162 3562 c-54 -117 -59 -159 -32 -257 21 -74 21 -103 1 -134 -7
-11 -19 -6 -58 27 -94 80 -134 95 -260 100 -124 5 -118 6 -437 -100 -136 -46
-157 -50 -241 -50 -67 0 -102 5 -125 17 -40 21 -46 15 -26 -24 17 -32 80 -71
116 -71 11 0 20 -2 20 -4 0 -2 -29 -64 -64 -138 -34 -73 -82 -173 -105 -223
-24 -49 -58 -121 -76 -160 -19 -38 -55 -114 -80 -168 l-46 -97 20 -29 c12 -16
21 -33 21 -38 0 -23 132 -129 170 -137 14 -2 45 -9 70 -15 109 -26 244 -5 343
53 47 28 127 117 127 142 0 7 -11 39 -24 71 -42 102 -74 187 -81 213 -4 14
-11 30 -15 35 -3 6 -17 39 -29 75 -13 36 -29 79 -36 95 -7 17 -25 64 -40 105
-16 41 -41 105 -56 141 l-27 65 167 22 c415 54 474 53 570 -4 48 -29 62 -43
81 -87 12 -28 40 -88 61 -132 l39 -80 -21 -380 c-19 -358 -22 -383 -45 -434
-30 -67 -34 -84 -44 -196 -9 -100 -32 -186 -62 -228 -11 -16 -44 -39 -74 -53
-48 -22 -66 -24 -188 -24 -128 0 -136 -1 -150 -22 -39 -55 -48 -53 367 -67
671 -23 847 -25 847 -8 0 8 -13 26 -29 40 -26 21 -42 25 -151 31 -146 8 -190
27 -238 104 -37 59 -45 97 -47 247 -1 108 -4 125 -28 172 -24 47 -27 63 -27
163 0 60 7 234 15 387 l16 276 36 66 c87 160 94 170 161 206 54 30 72 35 132
35 38 0 107 -9 152 -19 46 -11 101 -22 124 -25 22 -2 81 -14 130 -26 49 -11
111 -23 139 -26 27 -3 51 -7 53 -8 1 -2 -20 -47 -47 -102 -99 -200 -196 -399
-196 -404 0 -3 -29 -62 -64 -131 -72 -143 -72 -149 -14 -220 44 -53 105 -96
183 -130 47 -20 72 -23 170 -23 128 -1 154 7 248 71 59 41 102 92 102 121 0
11 -12 46 -26 78 -14 33 -28 70 -30 83 -3 13 -13 40 -23 60 -10 20 -24 54 -31
76 -7 22 -18 54 -26 70 -21 48 -78 199 -80 213 -1 7 -12 33 -23 58 -12 24 -21
48 -21 54 0 5 -11 34 -24 64 -26 58 -25 66 9 66 27 0 110 53 125 79 13 25 16
25 -51 5 -63 -19 -182 -14 -226 9 -99 52 -336 146 -460 182 -111 32 -240 10
-323 -55 -19 -15 -47 -35 -62 -44 -27 -17 -27 -17 -43 13 -15 29 -14 34 16
112 31 81 31 83 19 153 -7 39 -24 95 -37 124 -12 29 -23 57 -23 62 0 5 -4 11
-9 14 -4 3 -27 -34 -49 -82z m-977 -579 c10 -27 28 -74 41 -106 13 -32 24 -63
24 -68 0 -5 9 -28 20 -52 11 -23 24 -56 29 -72 5 -17 24 -66 41 -110 36 -92
86 -222 107 -279 7 -21 12 -41 9 -43 -2 -3 -37 -14 -78 -26 -62 -19 -97 -22
-233 -22 -153 1 -164 2 -263 34 l-102 33 32 57 c18 31 31 58 30 61 -3 8 312
639 320 640 3 0 14 -21 23 -47z m2080 -138 c30 -65 64 -148 80 -199 23 -72
114 -305 135 -346 11 -22 18 -40 14 -40 -4 0 -2 -6 3 -12 6 -7 15 -27 21 -44
l10 -32 -84 -21 c-68 -17 -114 -21 -251 -21 l-167 0 -91 36 -92 37 167 346
c92 190 175 362 185 381 l18 35 14 -35 c8 -19 25 -57 38 -85z"/>
<path d="M3319 1347 c-14 -11 -43 -76 -36 -83 1 -2 158 -6 347 -9 190 -3 550
-15 800 -26 250 -11 474 -19 497 -17 l41 3 -17 35 c-15 32 -21 36 -81 46 -36
7 -126 12 -200 13 -74 1 -205 6 -290 11 -253 16 -817 40 -935 40 -71 -1 -116
-5 -126 -13z"/>
</g>
</svg>
